<?xml version="1.0" encoding="UTF-8" standalone="no"?>
<!-- Created with Inkscape (http://www.inkscape.org/) -->

<svg
   width="65.668533mm"
   height="89.690269mm"
   viewBox="0 0 65.668533 89.690269"
   version="1.1"
   id="svg1"
   xmlns:inkscape="http://www.inkscape.org/namespaces/inkscape"
   xmlns:sodipodi="http://sodipodi.sourceforge.net/DTD/sodipodi-0.dtd"
   xmlns="http://www.w3.org/2000/svg"
   xmlns:svg="http://www.w3.org/2000/svg">
  <sodipodi:namedview
     id="namedview1"
     pagecolor="#ffffff"
     bordercolor="#000000"
     borderopacity="0.25"
     inkscape:showpageshadow="2"
     inkscape:pageopacity="0.0"
     inkscape:pagecheckerboard="0"
     inkscape:deskcolor="#d1d1d1"
     inkscape:document-units="mm">
    <inkscape:page
       x="0"
       y="0"
       width="65.668533"
       height="89.690269"
       id="page2"
       margin="0"
       bleed="0" />
  </sodipodi:namedview>
  <defs
     id="defs1" />
  <g
     inkscape:label="Calque 1"
     inkscape:groupmode="layer"
     id="layer1"
     transform="translate(-63.169269,-33.865112)">
    <path
       d="m 94.820569,33.865116 c -9.509954,2.32e-4 -17.219158,7.709667 -17.219104,17.219621 -7.3e-5,6.333159 3.476294,12.155222 9.051644,15.159282 h -5.078243 c -5.035383,0 -9.529429,2.235388 -12.548072,5.77174 h 9.128642 c 2.248509,0 4.058667,1.810158 4.058667,4.058667 0,2.24851 -1.810158,4.058667 -4.058667,4.058667 h -9.990604 v 1.457276 h 10.19886 c 2.248509,0 4.058667,1.810157 4.058667,4.058667 0,2.248509 -1.810158,4.058667 -4.058667,4.058667 h -6.764445 v 3.515031 L 81.901461,108.82385 124.55312,83.869299 V 82.05649 c 0,-0.0072 2e-4,-0.01406 0,-0.02119 -0.002,-0.05902 -0.0101,-0.116359 -0.0248,-0.171049 -0.44603,-8.727629 -7.61917,-15.620235 -16.46153,-15.620235 h -5.07824 c 5.57535,-3.004058 9.05171,-8.826122 9.05164,-15.159282 5e-5,-9.510157 -7.70947,-17.219675 -17.219621,-17.219621 z m 0,7.925615 c 4.97054,1.5e-5 8.999951,4.029428 8.999971,8.999967 -2e-5,4.970539 -4.029431,8.999953 -8.999971,8.999968 -4.970537,-1.8e-5 -8.99995,-4.029431 -8.999968,-8.999968 1.8e-5,-4.970537 4.029431,-8.999949 8.999968,-8.999967 z M 65.953597,73.472518 c -1.542707,0 -2.784326,1.09097 -2.784326,2.445845 0,1.354874 1.241619,2.445846 2.784326,2.445846 H 77.45212 c 1.542707,0 2.784843,-1.090972 2.784843,-2.445846 0,-1.354875 -1.242136,-2.445845 -2.784843,-2.445845 z m 0,9.678479 c -1.542707,0 -2.784326,1.09097 -2.784326,2.445845 0,1.354874 1.241619,2.445329 2.784326,2.445329 H 77.45212 c 1.542707,0 2.784843,-1.090455 2.784843,-2.445329 0,-1.354875 -1.242136,-2.445845 -2.784843,-2.445845 z m 58.628983,4.35994 c -0.16172,-0.0064 -0.32718,0.03169 -0.47646,0.118856 l -43.509489,25.404137 -9.713102,-14.784113 -0.0894,0.05788 0.06305,0.09664 -0.02067,0.01344 -0.06408,-0.09612 -6.803719,4.383713 13.450342,20.47317 c 0.246306,0.37493 0.764758,0.48921 1.162203,0.2558 l 0.05891,-0.0346 c 0.08442,-0.0195 0.166603,-0.0515 0.244946,-0.0971 L 128.43299,94.373051 c 0.39806,-0.23251 0.52377,-0.723337 0.28163,-1.100708 l -3.4525,-5.38055 c -0.15132,-0.235857 -0.41,-0.370175 -0.67954,-0.380856 z m -53.120792,7.607805 0.04806,0.07183 0.06408,0.09612 0.02067,-0.01344 -0.06305,-0.09663 -0.03772,-0.05788 z"
       style="fill:#ffffff;stroke-width:0.264583"
       id="path86"
       inkscape:export-filename="logo.svg"
       inkscape:export-xdpi="96"
       inkscape:export-ydpi="96" />
  </g>
</svg>
